P2
# Created by hand
5 3
255
0   255 1   128 8
127 3   5   9   10
23  34  89  53  76
