P2
# Created by hand
5 3
16777215
0   32768 1   128 8
16383 16777215   5   9   10
256  258 513  53  76
