P3
# Created by hand
5 3
255
0   0   0      64  64  64    128 128 128   192 192 192   255 255 255
0   0   0      64  64  64    128 128 128   192 192 192   255 255 255
0   0   0      64  64  64    128 128 128   192 192 192   255 255 255
