P3
# Created by hand
5 3
255
0   0   0      255 255 255   1   2    3     64  5    43    128 127 9
4   5   1      8   7   2     89  43   23    0   32   0     7   3   104
201 89  100    28  23  12    34  21   23    90  22   34    63  10  78
