P3
# Created by hand
5 3
255
1  1  1    4  4  4    7   7  7    10 10 10   13 13 13
2  2  2    5  5  5    8   8  8    11 11 11   14 14 14
3  3  3    6  6  6    9   9  9    12 12 12   15 15 15
