P2
# Created by hand
5 3
32767
0   32767 1   128 8
16383 3   5   9   10
256  258 513  53  76
