P1
# Created by hand
5 3
0 1 0 1 1
1 1 0 1 0
1 0 1 0 1
