P3
# Created by hand
3 2
32767
0     0     0 32767 32767 32767     1     2     3
4     5     1 16383 16384 16385    89   256   513
