ply
format ascii 1.0
element vertex 788
property float x
property float y
property float z
element face 1443
property list uchar int vertex_indices
end_header
-0.012775 0.182103 -0.029364
-0.015143 0.186532 -0.025468
-0.010141 0.180708 -0.029198
-0.009059 0.172962 -0.028729
-0.009370 0.165608 -0.018277
-0.020639 0.174172 -0.022045
-0.012892 0.177651 -0.021964
-0.017225 0.187680 -0.020008
-0.024405 0.182539 -0.017076
-0.023527 0.177985 -0.020207
-0.020280 0.180041 -0.015611
-0.020902 0.186283 -0.014116
-0.024614 0.181370 -0.009203
-0.019422 0.172563 -0.015866
-0.009415 0.167925 -0.023302
-0.013913 0.163205 -0.010685
-0.029691 0.167145 -0.017090
-0.022520 0.160869 -0.014082
-0.029862 0.163961 -0.005558
-0.032989 0.167473 -0.005205
-0.027118 0.181720 -0.008472
-0.017426 0.159207 -0.008293
-0.025454 0.159733 -0.000515
-0.030592 0.154220 -0.006451
-0.030046 0.154268 -0.002263
0.022841 0.121097 -0.005235
0.025656 0.123906 0.010024
0.033002 0.116386 0.002281
0.018409 0.127761 0.004295
0.044804 0.088766 -0.001400
0.040618 0.099375 -0.004181
0.045476 0.093332 0.005070
0.024345 0.111959 -0.012924
0.024155 0.101299 -0.019452
0.011880 0.105313 -0.019922
0.035582 0.102192 -0.011313
0.034614 0.095260 -0.013358
0.028832 0.109535 -0.011983
0.017683 0.101904 -0.022273
0.030330 0.091663 -0.019740
0.020152 0.092056 -0.024016
0.033585 0.110816 -0.006255
0.033436 0.116151 0.021285
0.040453 0.105735 0.003401
0.042085 0.103720 0.010637
0.011610 0.120626 -0.013626
0.009075 0.113552 -0.018901
0.002186 0.122904 -0.010904
0.002725 0.114454 -0.019975
-0.004072 0.117136 -0.015596
0.009998 0.130306 0.001738
0.007460 0.131867 0.014280
0.006682 0.126905 -0.006347
0.000727 0.130693 0.001511
-0.005276 0.125429 -0.008890
-0.017568 0.115418 -0.016942
-0.010604 0.129213 0.002229
-0.008739 0.130620 0.016075
-0.015293 0.124976 -0.004476
-0.028332 0.124700 0.002060
-0.023144 0.121120 -0.009452
-0.024670 0.114543 -0.015987
-0.028172 0.125577 0.011210
-0.001352 0.112005 -0.019953
-0.000492 0.100364 -0.023259
-0.006497 0.110466 -0.022261
0.012311 0.097420 -0.023501
0.012054 0.091328 -0.030432
0.003400 0.095148 -0.031537
-0.009244 0.096521 -0.031882
-0.013429 0.111716 -0.018820
-0.014956 0.104196 -0.023004
-0.021283 0.109319 -0.021229
-0.010062 0.099818 -0.024390
-0.022787 0.093263 -0.033953
-0.013371 0.092507 -0.036199
-0.024548 0.096153 -0.024761
-0.026732 0.104547 -0.023369
-0.030701 0.115197 -0.015892
0.012379 0.130205 0.019728
0.024745 0.123676 0.023336
0.020693 0.121682 0.031699
0.029101 0.114338 0.032003
0.038149 0.106966 0.025892
0.043417 0.095118 0.023598
0.037285 0.093320 0.036326
0.013523 0.114095 0.038017
0.027274 0.108443 0.037569
0.017523 0.108685 0.040454
0.030498 0.096236 0.041800
0.025220 0.104522 0.040049
0.015047 0.102821 0.046832
0.022709 0.088403 0.048709
0.001290 0.130117 0.024844
-0.009920 0.128619 0.025562
0.011990 0.128358 0.027084
0.013894 0.121782 0.034083
0.007712 0.124407 0.033546
-0.004192 0.124683 0.033618
0.005165 0.113402 0.041294
-0.002499 0.118087 0.039644
-0.027076 0.124824 0.017222
-0.016349 0.122837 0.031668
-0.030370 0.118292 0.030897
-0.026162 0.118053 0.031585
-0.016702 0.119302 0.035917
0.007274 0.106624 0.041278
-0.005338 0.107966 0.044020
0.002843 0.101273 0.045048
0.010535 0.097349 0.049206
0.018304 0.092084 0.047975
-0.006511 0.101599 0.043804
-0.000840 0.099390 0.050575
0.001450 0.095144 0.054583
-0.009723 0.093024 0.056652
-0.019372 0.106855 0.042328
-0.015059 0.100227 0.043934
-0.030318 0.107041 0.039610
-0.028852 0.100812 0.043236
-0.009645 0.099024 0.050289
-0.017063 0.094843 0.053638
-0.026229 0.093952 0.044964
-0.023772 0.095770 0.044805
-0.066850 0.160855 -0.057660
-0.060838 0.172628 -0.062139
-0.062650 0.162352 -0.058892
-0.065996 0.180055 -0.060341
-0.062543 0.178341 -0.058823
-0.071442 0.181304 -0.051981
-0.066052 0.172283 -0.045021
-0.073386 0.180327 -0.055224
-0.067210 0.173989 -0.058114
-0.073911 0.175150 -0.041493
-0.062196 0.168486 -0.050101
-0.072345 0.169850 -0.047153
-0.070428 0.159050 -0.046580
-0.072125 0.170433 -0.027878
-0.061822 0.161747 -0.037479
-0.062406 0.160851 -0.022119
-0.062768 0.161194 -0.046966
-0.067351 0.151899 -0.047033
-0.071491 0.151786 -0.045437
-0.063137 0.155709 -0.038349
-0.072912 0.155304 -0.031963
-0.074117 0.162707 -0.035597
-0.065900 0.148128 -0.029407
-0.071064 0.146597 -0.025256
-0.074773 0.149861 -0.030160
-0.035555 0.175632 -0.011372
-0.036714 0.163381 -0.014395
-0.033349 0.175375 -0.002439
-0.034087 0.172451 -0.000690
-0.043616 0.171643 -0.003625
-0.045846 0.168065 -0.006855
-0.040736 0.159986 0.002592
-0.047052 0.166459 0.003283
-0.041386 0.165614 0.004286
-0.066441 0.167590 -0.027538
-0.067967 0.162457 -0.013485
-0.056218 0.160598 0.001929
-0.042360 0.150888 -0.006024
-0.035346 0.158303 0.004067
-0.041170 0.148710 0.003316
-0.042035 0.155144 0.006730
-0.046334 0.158712 -0.008380
-0.052845 0.151316 -0.003189
-0.047185 0.160327 0.007745
-0.049702 0.143523 0.002009
-0.049506 0.143967 0.008330
-0.050753 0.150049 0.012884
-0.061444 0.156140 -0.020384
-0.064098 0.146000 -0.018096
-0.063511 0.142619 -0.007774
-0.062319 0.148938 -0.006206
-0.071916 0.144100 -0.014847
-0.058382 0.154386 0.000446
-0.058594 0.155935 0.010143
-0.054431 0.154822 0.012582
-0.063074 0.154149 0.002110
-0.072262 0.158044 -0.003288
-0.066577 0.155348 -0.003908
-0.071683 0.155785 0.003577
-0.053786 0.143893 -0.000874
-0.059734 0.145672 -0.002301
-0.067088 0.140891 -0.008111
-0.074252 0.143117 -0.006996
-0.078117 0.177352 -0.050581
-0.078564 0.173749 -0.042654
-0.079501 0.169469 -0.040584
-0.075943 0.165045 -0.019794
-0.078484 0.159401 -0.022278
-0.074579 0.154740 -0.020377
-0.077034 0.154155 -0.007042
-0.076506 0.149657 -0.011453
-0.075414 0.151511 -0.011004
-0.077745 0.152549 -0.001758
-0.083464 0.151172 0.004368
-0.079437 0.141622 -0.004109
-0.084177 0.144677 0.004684
-0.088657 0.137956 0.010753
-0.086007 0.138796 0.002715
-0.050425 0.137074 0.001399
-0.043290 0.129456 0.010521
-0.047949 0.129049 -0.001004
-0.031448 0.123278 -0.004816
-0.038302 0.116335 -0.014773
-0.036546 0.126126 -0.004515
-0.040805 0.125026 -0.009221
-0.035823 0.127967 0.011365
-0.054235 0.125738 -0.006021
-0.048450 0.120116 -0.013714
-0.055630 0.133961 -0.005251
-0.065179 0.130665 -0.008752
-0.075093 0.128010 -0.008328
-0.060596 0.120735 -0.008920
-0.060868 0.113919 -0.014415
-0.069351 0.115906 -0.008616
-0.034226 0.106290 -0.020167
-0.038675 0.108398 -0.020023
-0.045298 0.111384 -0.017284
-0.039623 0.100195 -0.021557
-0.036827 0.089936 -0.024148
-0.052991 0.098696 -0.022374
-0.054225 0.109905 -0.018156
-0.046508 0.092718 -0.022024
-0.062893 0.102424 -0.018121
-0.061648 0.096635 -0.018732
-0.055805 0.093231 -0.022266
-0.067639 0.098538 -0.016181
-0.076122 0.095102 -0.013584
-0.080525 0.133784 -0.004050
-0.086193 0.126357 -0.002936
-0.089303 0.133562 0.004669
-0.092529 0.128324 0.009288
-0.086914 0.121513 -0.001989
-0.076840 0.119378 -0.007083
-0.080867 0.111375 -0.001278
-0.091647 0.116073 0.007848
-0.074518 0.084694 -0.015228
-0.075005 0.113657 -0.006135
-0.085341 0.109595 0.006265
-0.092611 0.113913 0.016639
-0.083821 0.099083 -0.003926
-0.086460 0.096833 0.000980
-0.089274 0.098312 0.009166
-0.084896 0.087606 -0.003863
-0.086636 0.092950 0.003335
-0.067618 0.156631 0.023068
-0.055451 0.154188 0.024203
-0.056908 0.153082 0.031192
-0.080409 0.154323 0.027283
-0.066478 0.152671 0.035795
-0.053424 0.150192 0.024408
-0.052036 0.145042 0.016699
-0.054782 0.145515 0.029198
-0.053994 0.138727 0.029066
-0.062259 0.137213 0.035663
-0.059136 0.150037 0.035640
-0.063938 0.144349 0.039078
-0.069409 0.142337 0.045607
-0.077502 0.147193 0.042380
-0.082874 0.154845 0.018055
-0.090408 0.151683 0.017574
-0.090564 0.148089 0.011940
-0.091858 0.145762 0.023990
-0.091205 0.142620 0.015891
-0.090777 0.135799 0.018221
-0.085901 0.148819 0.032530
-0.089415 0.143048 0.032056
-0.086715 0.141311 0.040943
-0.078897 0.141322 0.047239
-0.047948 0.136279 0.015866
-0.046404 0.131767 0.022052
-0.038093 0.126416 0.020398
-0.037650 0.122232 0.028171
-0.043585 0.126885 0.018415
-0.045243 0.122906 0.024901
-0.049238 0.129110 0.030947
-0.048212 0.118131 0.030708
-0.056895 0.132530 0.036456
-0.061076 0.125026 0.042570
-0.069582 0.131114 0.049540
-0.075642 0.131029 0.052803
-0.055854 0.123096 0.039629
-0.055103 0.114279 0.035069
-0.061247 0.119041 0.041338
-0.065332 0.118140 0.050430
-0.065848 0.124819 0.050029
-0.070344 0.119655 0.053892
-0.040285 0.112070 0.036033
-0.040160 0.099744 0.041519
-0.044024 0.106002 0.041107
-0.051162 0.110143 0.037716
-0.032661 0.097425 0.044497
-0.036681 0.092295 0.044283
-0.048526 0.102304 0.041556
-0.049712 0.094445 0.044568
-0.063163 0.113086 0.037189
-0.057275 0.103478 0.042206
-0.065985 0.110417 0.037406
-0.069634 0.112703 0.048694
-0.076442 0.107774 0.036532
-0.075422 0.104207 0.036379
-0.074742 0.113517 0.050552
-0.053413 0.096409 0.043531
-0.064969 0.099867 0.042080
-0.060504 0.092482 0.045838
-0.071675 0.094614 0.041976
-0.070440 0.088782 0.042255
-0.093287 0.130812 0.021024
-0.088833 0.137226 0.026546
-0.092780 0.124066 0.030734
-0.095101 0.123512 0.021380
-0.090188 0.115764 0.027781
-0.091580 0.114536 0.035037
-0.085888 0.130723 0.049026
-0.080537 0.128340 0.053540
-0.090642 0.128708 0.042179
-0.077888 0.121916 0.052289
-0.085201 0.124052 0.049158
-0.080531 0.113778 0.047475
-0.087267 0.118897 0.048584
-0.093407 0.119604 0.040765
-0.083770 0.108169 0.024762
-0.085377 0.097827 0.028736
-0.082844 0.110745 0.030758
-0.086567 0.109169 0.015862
-0.089261 0.099249 0.020467
-0.089533 0.090025 0.021161
-0.076580 0.110440 0.045343
-0.087402 0.111643 0.041604
-0.079450 0.095073 0.035316
0.041489 0.088445 -0.010140
0.044681 0.079606 -0.001440
0.046079 0.085379 0.006768
0.046636 0.074338 0.017360
0.046825 0.071730 0.004620
0.048376 0.073614 0.015181
0.055605 0.073007 0.009227
0.037792 0.086018 -0.016224
0.024719 0.086317 -0.024406
0.032049 0.078900 -0.019318
0.037374 0.076368 -0.012009
0.031741 0.069725 -0.018552
0.029345 0.071962 -0.022170
0.021917 0.069882 -0.027524
0.021070 0.077704 -0.026710
0.037745 0.068298 -0.013176
0.041567 0.068440 -0.006273
0.061102 0.067216 0.013975
0.057665 0.067408 0.002899
0.053592 0.069636 0.002461
0.060720 0.060817 0.007140
0.054533 0.060176 -0.001897
0.040406 0.060384 -0.004057
0.049520 0.059667 -0.005038
0.051159 0.051652 -0.002917
0.057227 0.050723 0.007747
0.042392 0.052017 -0.007064
0.031165 0.061500 -0.018819
0.036943 0.059653 -0.010650
0.023502 0.063983 -0.024667
0.015129 0.060936 -0.028903
0.024419 0.059030 -0.025087
0.020730 0.053907 -0.027091
0.030572 0.056783 -0.016444
0.027989 0.049344 -0.018436
0.022522 0.045491 -0.018271
0.014056 0.048730 -0.026153
0.034921 0.052641 -0.006912
0.029549 0.046674 -0.007129
-0.022341 0.077426 -0.039232
-0.027242 0.084673 -0.036935
-0.014230 0.086216 -0.039027
-0.005002 0.077915 -0.037286
-0.002025 0.084431 -0.037080
-0.014962 0.079469 -0.038996
-0.009226 0.068404 -0.036218
-0.012241 0.073243 -0.038553
-0.014115 0.061287 -0.036432
-0.022322 0.064465 -0.035605
0.004518 0.085921 -0.033766
0.012613 0.079810 -0.031077
0.007583 0.073475 -0.034190
0.010997 0.071912 -0.032044
-0.028668 0.088998 -0.032501
-0.031681 0.076479 -0.032012
0.004158 0.068603 -0.032941
0.001692 0.064075 -0.034233
0.006218 0.060399 -0.030756
0.004312 0.051232 -0.029574
-0.007138 0.062891 -0.035646
0.008689 0.054279 -0.030493
-0.003933 0.053243 -0.031858
0.001640 0.048334 -0.030056
-0.009677 0.053216 -0.033325
-0.006683 0.045912 -0.029457
-0.018269 0.044837 -0.027915
-0.027356 0.060418 -0.029413
-0.025933 0.048602 -0.025735
0.040215 0.043628 -0.003341
0.049279 0.044928 0.002937
0.048216 0.042358 0.012577
0.041191 0.039684 0.003565
0.020213 0.043307 -0.021360
0.017640 0.035195 -0.013579
0.032525 0.038502 -0.000901
0.026026 0.034952 0.002926
0.023455 0.040317 -0.005523
0.020684 0.035234 -0.001865
0.033615 0.035483 0.012032
0.019484 0.034400 0.002849
0.020898 0.035937 0.008785
0.020425 0.035676 0.007058
0.018010 0.035561 0.004826
0.021677 0.035491 0.009351
0.025771 0.034481 0.012653
0.002899 0.043078 -0.024413
0.013688 0.037085 -0.022044
0.002529 0.035965 -0.024399
-0.010810 0.040589 -0.026347
0.014774 0.034541 -0.017036
0.004237 0.034318 -0.016061
0.003295 0.034009 -0.021353
-0.012989 0.033739 -0.024194
-0.002969 0.038548 0.006010
-0.004910 0.039145 -0.014336
0.007866 0.038629 -0.009854
0.010652 0.034891 -0.009356
0.001701 0.034227 0.004719
0.010689 0.034999 0.003851
0.014371 0.035816 0.003866
0.008146 0.036208 0.006178
0.006159 0.034994 0.006731
0.018764 0.036357 0.006112
0.005018 0.034170 0.008903
-0.029125 0.040412 -0.030082
-0.031468 0.038666 -0.016914
-0.018649 0.038231 -0.017189
-0.018835 0.038434 -0.002275
-0.015193 0.035214 -0.026191
-0.021262 0.033935 -0.020446
-0.028072 0.033892 -0.029333
-0.015676 0.038200 0.012763
-0.032072 0.038287 -0.000423
-0.028100 0.037431 0.006077
0.045049 0.085126 0.023708
0.053194 0.073178 0.019839
0.058641 0.071109 0.017356
0.044230 0.068641 0.024878
0.040386 0.083898 0.033140
0.039166 0.067746 0.033921
0.032895 0.087960 0.042177
0.029461 0.085101 0.043550
0.026119 0.080146 0.047711
0.016739 0.078579 0.053671
0.033675 0.076288 0.041299
0.025597 0.069618 0.044070
0.021696 0.070360 0.049047
0.059643 0.058071 0.019690
0.057640 0.063912 0.024883
0.052577 0.068885 0.026163
0.047835 0.059941 0.031751
0.040884 0.061829 0.029119
0.056815 0.050157 0.018345
0.054330 0.054847 0.027192
0.049139 0.045342 0.023279
0.036323 0.053313 0.031755
0.045277 0.049498 0.031550
0.041458 0.047771 0.032565
0.034883 0.061310 0.038823
0.032233 0.071147 0.040463
0.025400 0.055337 0.042650
0.025598 0.061237 0.044798
0.018647 0.062599 0.048872
0.020634 0.055854 0.048186
0.029601 0.051148 0.037175
0.032489 0.046809 0.030769
0.018039 0.047976 0.042687
0.013310 0.089252 0.053857
0.005660 0.086179 0.057018
0.012930 0.082354 0.053576
0.012298 0.065965 0.053719
0.007724 0.075620 0.056465
-0.023887 0.087547 0.053764
-0.029869 0.087685 0.044048
-0.016155 0.076989 0.056544
-0.024655 0.080876 0.054516
-0.022004 0.072884 0.051983
-0.029528 0.076637 0.041194
0.009607 0.059800 0.052794
0.015290 0.054198 0.048713
0.011045 0.055238 0.052522
0.010931 0.044505 0.044768
0.004302 0.049601 0.052455
0.003839 0.062097 0.056786
0.000329 0.058130 0.054473
-0.001247 0.052615 0.054858
-0.006164 0.055768 0.053654
-0.010600 0.050666 0.050981
-0.017069 0.062556 0.052621
-0.010945 0.061392 0.055482
-0.012574 0.068481 0.054185
-0.028120 0.054768 0.035913
-0.028000 0.065648 0.037869
-0.016222 0.057015 0.051111
-0.003573 0.063326 0.056598
-0.012695 0.047267 0.048203
-0.021073 0.050896 0.045551
-0.004157 0.082298 0.057442
0.003871 0.078910 0.056061
-0.003189 0.073819 0.059429
0.000080 0.068630 0.056458
-0.013178 0.090958 0.056536
-0.008172 0.078734 0.058127
-0.018319 0.082534 0.058011
0.037597 0.039230 0.022559
0.032217 0.039587 0.026376
0.026323 0.039347 0.030522
0.021812 0.035218 0.024814
0.022184 0.035461 0.012927
0.022186 0.036510 0.014019
0.020691 0.036071 0.017539
0.017520 0.034710 0.022079
0.018960 0.036126 0.019186
0.026367 0.044855 0.037795
0.018172 0.042965 0.043956
0.019745 0.037113 0.041576
0.015167 0.034722 0.040370
0.012641 0.034922 0.029465
0.008830 0.037696 0.033658
0.007881 0.039706 0.032330
0.005251 0.039496 0.033273
0.001504 0.039386 0.034367
-0.002834 0.038343 0.019236
0.002240 0.034427 0.019545
0.006218 0.039385 0.033515
-0.002243 0.039315 0.035455
0.010506 0.034898 0.020389
0.010096 0.034764 0.018605
0.008104 0.034843 0.018135
0.013183 0.035010 0.021288
0.005372 0.033639 0.013011
0.006488 0.034610 0.016388
0.007484 0.034272 0.016678
0.003917 0.035452 0.045898
0.001194 0.041598 0.046291
-0.000095 0.039211 0.035793
0.003577 0.039531 0.034704
-0.004111 0.045514 0.046849
0.008487 0.034811 0.036293
0.000262 0.033742 0.040094
-0.003334 0.034374 0.041088
-0.001502 0.035016 0.039430
0.003085 0.034581 0.038745
0.006730 0.034725 0.037890
0.002068 0.034809 0.038609
0.004819 0.034907 0.037291
-0.009604 0.039056 0.037531
-0.005969 0.039186 0.036535
-0.026572 0.037849 0.015635
-0.023531 0.039028 0.038488
-0.026896 0.038786 0.036255
-0.003880 0.039494 0.036810
-0.007584 0.039506 0.037829
-0.011281 0.039449 0.038859
-0.013331 0.039080 0.038584
-0.014915 0.039129 0.039930
-0.021719 0.045066 0.053612
-0.009438 0.035413 0.049399
-0.019248 0.036295 0.052984
-0.026519 0.038877 0.038062
-0.026055 0.048891 0.048735
-0.028683 0.040352 0.053450
-0.026913 0.035212 0.053624
-0.005251 0.035026 0.040519
-0.008097 0.034677 0.041954
-0.007009 0.034873 0.042072
-0.011781 0.034777 0.042952
-0.012651 0.035056 0.042526
-0.010748 0.034805 0.043136
-0.014464 0.034614 0.044106
-0.008916 0.035028 0.041463
-0.018112 0.035095 0.045090
-0.016532 0.034079 0.043684
-0.029329 0.034713 0.042809
-0.026216 0.035199 0.043463
-0.024141 0.035246 0.043709
-0.028934 0.093080 -0.025134
-0.033395 0.084549 -0.026145
-0.035750 0.081665 -0.022065
-0.040942 0.084945 -0.021367
-0.059036 0.084969 -0.020745
-0.056116 0.079964 -0.021141
-0.035460 0.076238 -0.019610
-0.031862 0.066539 -0.020961
-0.038091 0.073348 -0.017562
-0.043031 0.072049 -0.017926
-0.046915 0.076373 -0.017988
-0.066579 0.082966 -0.018599
-0.059737 0.069923 -0.014808
-0.065989 0.075080 -0.016561
-0.072724 0.076202 -0.012165
-0.068852 0.068783 -0.006867
-0.030032 0.068568 -0.028702
-0.033798 0.062791 -0.013863
-0.029956 0.058024 -0.020763
-0.038159 0.059782 -0.011602
-0.050212 0.068595 -0.013861
-0.046704 0.063649 -0.013592
-0.030805 0.054310 -0.014783
-0.029713 0.050158 -0.020720
-0.032948 0.051153 -0.010115
-0.043070 0.055174 -0.011399
-0.041406 0.048604 -0.011490
-0.052303 0.051430 -0.007047
-0.056630 0.061476 -0.004749
-0.053783 0.056290 -0.006790
-0.063957 0.061966 -0.002846
-0.076877 0.072278 -0.005227
-0.074961 0.067152 0.003149
-0.070011 0.061483 0.009599
-0.057402 0.058340 0.002195
-0.056592 0.046469 -0.005170
-0.058741 0.048376 0.002787
-0.053859 0.056006 0.011620
-0.055641 0.057092 0.011033
-0.057102 0.048057 0.009198
-0.080624 0.085256 -0.007870
-0.088506 0.087287 0.004802
-0.086765 0.083574 0.008909
-0.080556 0.077515 -0.004192
-0.085003 0.078224 0.005632
-0.075807 0.070251 0.000104
-0.080371 0.070532 0.012837
-0.082014 0.075834 0.020137
-0.034609 0.043531 -0.028999
-0.036547 0.033986 -0.031012
-0.038402 0.046109 -0.022843
-0.043745 0.035877 -0.026735
-0.044454 0.040268 -0.021653
-0.044666 0.033663 -0.023747
-0.047736 0.038955 -0.012167
-0.047569 0.033546 -0.015089
-0.033064 0.033720 -0.021017
-0.038428 0.033951 -0.016497
-0.041892 0.034092 -0.005848
-0.035801 0.038393 -0.004843
-0.034481 0.038329 -0.002670
-0.037360 0.038532 -0.007060
-0.036785 0.038261 -0.005067
-0.035481 0.038305 -0.002909
-0.034012 0.035969 -0.000775
-0.029435 0.038158 0.003876
-0.030807 0.038245 0.001801
-0.029158 0.038055 0.005854
-0.030478 0.038130 0.003707
-0.031799 0.038204 0.001558
-0.049798 0.043651 -0.010260
-0.039703 0.036219 -0.007360
-0.037314 0.033643 0.004572
-0.043685 0.033653 0.005838
-0.037640 0.033672 0.002661
-0.035232 0.033725 0.004913
-0.034908 0.033701 0.006824
-0.033462 0.033205 0.008875
-0.033822 0.033814 0.006925
-0.038678 0.033618 0.002494
-0.041504 0.034052 -0.003939
-0.041270 0.033847 -0.001881
-0.054320 0.033605 -0.012240
-0.039883 0.033719 0.000195
-0.038828 0.033992 0.000319
-0.039967 0.034391 -0.002104
-0.040031 0.035461 0.009600
-0.043813 0.035966 0.008361
-0.047153 0.035611 0.008012
-0.049163 0.036434 0.008856
-0.064476 0.033831 -0.008328
-0.065912 0.041640 -0.005285
-0.067255 0.045358 0.004964
-0.070135 0.034089 -0.003859
-0.070357 0.038342 -0.001071
-0.072746 0.035867 0.003147
-0.065089 0.043180 0.011519
-0.072402 0.039178 0.007180
-0.060594 0.033381 -0.000775
-0.052554 0.033768 0.012360
-0.061510 0.034114 0.019637
-0.071349 0.034506 0.009683
-0.037497 0.084302 0.044227
-0.032897 0.085395 0.042139
-0.042124 0.085174 0.042425
-0.048543 0.086699 0.045837
-0.039194 0.078301 0.042965
-0.036533 0.064656 0.041691
-0.046919 0.074100 0.042512
-0.054538 0.081825 0.044926
-0.055895 0.089546 0.044984
-0.078656 0.085767 0.036914
-0.071533 0.074965 0.037056
-0.065768 0.084851 0.044588
-0.059937 0.074810 0.041907
-0.043062 0.066440 0.041395
-0.051587 0.066617 0.036501
-0.051744 0.062399 0.031737
-0.041333 0.051520 0.039566
-0.033687 0.050405 0.038357
-0.035217 0.044532 0.045522
-0.052787 0.060576 0.027746
-0.047544 0.053655 0.036726
-0.052083 0.049673 0.035876
-0.043990 0.045303 0.041855
-0.069869 0.061186 0.015906
-0.075367 0.067263 0.017902
-0.057577 0.059257 0.021484
-0.058036 0.059095 0.020885
-0.065255 0.066317 0.032080
-0.049631 0.053309 0.015753
-0.051511 0.055647 0.015521
-0.052590 0.058238 0.023615
-0.054286 0.057288 0.019862
-0.052815 0.055719 0.019192
-0.054596 0.057550 0.019613
-0.057727 0.057828 0.016616
-0.057193 0.058152 0.018208
-0.050568 0.046232 0.017544
-0.052999 0.047756 0.024697
-0.052609 0.050154 0.030572
-0.076191 0.071796 0.028691
-0.085812 0.083575 0.021639
-0.084634 0.086635 0.028231
-0.082511 0.079862 0.029224
-0.086437 0.079898 0.015218
-0.031007 0.037155 0.032651
-0.034786 0.033947 0.024415
-0.036078 0.035149 0.021493
-0.036049 0.035880 0.013645
-0.036902 0.036214 0.013167
-0.029803 0.034286 0.016353
-0.030307 0.033995 0.014706
-0.037392 0.033971 0.018838
-0.032132 0.033718 0.010915
-0.032499 0.033739 0.009074
-0.030597 0.032352 0.010935
-0.037534 0.035679 0.011718
-0.036190 0.035599 0.019269
-0.039226 0.036317 0.010799
-0.028749 0.035301 0.017407
-0.036665 0.035304 0.023032
-0.038026 0.035762 0.024175
-0.034831 0.034696 0.034589
-0.041770 0.034102 0.026843
-0.050485 0.034293 0.026595
-0.045525 0.033903 0.027821
-0.040701 0.034002 0.026890
-0.043824 0.033368 0.026402
-0.043753 0.034706 0.041738
-0.029522 0.038333 0.034333
-0.030565 0.038325 0.034140
-0.038737 0.043170 0.041443
-0.028584 0.036047 0.036194
-0.033582 0.041471 0.050014
-0.034357 0.035186 0.047798
-0.039434 0.036090 0.042901
-0.051987 0.036334 0.046969
-0.032272 0.034360 0.038952
-0.031827 0.034550 0.040682
-0.033221 0.034492 0.038645
-0.034602 0.034461 0.036611
-0.029820 0.034491 0.041099
-0.033656 0.034344 0.036914
-0.059719 0.039209 0.019879
-0.063731 0.042241 0.027036
-0.063431 0.045614 0.034008
-0.064452 0.036485 0.024544
-0.065502 0.036485 0.016367
-0.067194 0.036609 0.030941
-0.053783 0.033743 0.015431
-0.053462 0.033213 0.019006
-0.051995 0.033804 0.024811
-0.051032 0.033645 0.025035
-0.065386 0.034388 0.029744
-0.054405 0.045150 0.044635
-0.060778 0.045749 0.042014
-0.056327 0.039875 0.047412
-0.061046 0.034941 0.045101
-0.066754 0.036067 0.037892
3 0 1 2
3 3 2 4
3 5 0 3
3 0 2 3
3 6 2 1
3 4 2 6
3 1 7 6
3 8 7 1
3 0 9 1
3 10 7 11
3 10 11 12
3 8 11 7
3 8 1 9
3 5 9 0
3 6 7 10
3 13 6 10
3 3 4 14
3 13 4 6
3 4 13 15
3 3 14 5
3 16 14 17
3 16 5 14
3 13 18 15
3 10 12 19
3 20 12 11
3 13 10 19
3 14 4 17
3 4 15 21
3 17 4 21
3 15 18 22
3 15 22 21
3 21 23 17
3 24 23 21
3 22 24 21
3 25 26 27
3 25 28 26
3 29 30 31
3 32 33 34
3 33 35 36
3 37 35 33
3 34 33 38
3 37 33 32
3 33 36 39
3 39 40 33
3 38 33 40
3 27 41 25
3 27 26 42
3 43 27 44
3 27 42 44
3 43 41 27
3 25 37 32
3 41 37 25
3 32 45 25
3 41 43 30
3 30 35 41
3 41 35 37
3 36 35 30
3 31 43 44
3 31 30 43
3 45 46 47
3 47 46 48
3 47 48 49
3 50 51 28
3 52 45 47
3 50 45 52
3 50 25 45
3 28 25 50
3 53 47 54
3 53 52 47
3 47 49 54
3 53 50 52
3 49 55 54
3 56 57 53
3 56 53 54
3 56 54 58
3 58 54 55
3 59 58 60
3 60 58 61
3 58 55 61
3 56 58 59
3 56 59 62
3 45 32 46
3 32 34 46
3 48 46 34
3 48 63 49
3 64 63 34
3 65 63 64
3 63 48 34
3 66 67 68
3 66 34 38
3 66 38 40
3 66 68 64
3 69 64 68
3 66 64 34
3 49 63 65
3 49 65 70
3 49 70 55
3 70 65 71
3 55 72 61
3 70 72 55
3 70 71 72
3 73 64 69
3 74 69 75
3 73 69 74
3 64 73 71
3 64 71 65
3 76 73 74
3 71 73 77
3 72 71 77
3 77 73 76
3 60 61 78
3 26 28 79
3 26 79 80
3 42 26 80
3 80 81 82
3 42 83 44
3 42 82 83
3 80 82 42
3 84 44 83
3 85 83 82
3 83 85 84
3 82 81 86
3 87 85 82
3 86 87 82
3 88 87 86
3 89 85 90
3 90 85 87
3 90 87 88
3 90 88 91
3 89 90 91
3 89 91 92
3 53 51 50
3 57 51 53
3 51 57 93
3 57 94 93
3 79 93 95
3 79 51 93
3 51 79 28
3 80 79 81
3 95 81 79
3 95 96 81
3 95 97 96
3 93 98 97
3 95 93 97
3 99 96 97
3 99 86 96
3 98 100 99
3 97 98 99
3 93 94 98
3 57 101 94
3 56 62 57
3 57 62 101
3 94 101 102
3 102 101 103
3 104 105 103
3 103 105 102
3 98 94 102
3 100 98 105
3 98 102 105
3 96 86 81
3 88 86 106
3 88 106 91
3 106 86 99
3 99 107 106
3 107 99 100
3 91 108 109
3 91 106 108
3 109 110 91
3 110 92 91
3 108 106 107
3 107 111 108
3 112 109 108
3 109 112 113
3 113 112 114
3 100 105 115
3 107 100 115
3 107 115 116
3 105 104 117
3 115 105 118
3 105 117 118
3 111 116 119
3 111 107 116
3 108 111 112
3 111 119 112
3 112 119 114
3 120 119 116
3 121 120 116
3 122 115 118
3 116 115 122
3 121 116 122
3 123 124 125
3 126 124 123
3 127 124 126
3 126 128 127
3 128 129 127
3 130 126 131
3 126 130 128
3 132 129 128
3 133 127 129
3 131 126 123
3 124 127 133
3 131 134 130
3 125 124 133
3 131 135 134
3 132 136 129
3 133 129 137
3 137 129 138
3 133 139 125
3 139 140 125
3 135 131 123
3 141 135 123
3 123 125 140
3 140 141 123
3 139 133 137
3 139 137 142
3 143 144 134
3 135 143 134
3 142 140 139
3 143 135 141
3 145 140 142
3 141 140 146
3 146 147 141
3 148 11 8
3 5 16 9
3 16 149 9
3 9 149 148
3 148 8 9
3 11 148 20
3 150 151 20
3 151 12 20
3 20 148 152
3 20 152 150
3 18 13 19
3 19 12 151
3 153 148 149
3 18 19 154
3 19 151 154
3 152 148 153
3 150 155 151
3 152 155 150
3 154 151 156
3 156 151 155
3 129 136 157
3 138 129 157
3 157 136 158
3 152 159 155
3 16 17 160
3 16 160 149
3 160 17 23
3 22 18 161
3 18 154 161
3 24 22 161
3 162 24 163
3 161 163 24
3 149 164 153
3 164 149 160
3 165 164 160
3 166 156 155
3 161 154 163
3 156 166 154
3 163 154 166
3 167 160 23
3 24 167 23
3 24 162 167
3 162 163 168
3 168 163 169
3 168 167 162
3 170 137 138
3 171 142 170
3 170 142 137
3 138 157 158
3 171 145 142
3 145 146 140
3 172 170 173
3 171 170 172
3 146 145 171
3 174 146 171
3 152 153 159
3 153 164 175
3 153 175 159
3 165 175 164
3 166 155 176
3 177 166 176
3 176 155 159
3 178 159 175
3 159 178 176
3 158 136 179
3 158 180 138
3 170 138 173
3 138 180 173
3 179 180 158
3 180 181 178
3 179 181 180
3 165 160 182
3 175 183 178
3 183 165 182
3 183 175 165
3 182 160 167
3 183 173 178
3 173 180 178
3 184 171 172
3 173 183 172
3 174 184 185
3 174 171 184
3 130 186 128
3 128 187 132
3 187 128 186
3 130 134 186
3 134 188 186
3 188 187 186
3 134 144 188
3 132 189 136
3 187 189 132
3 189 187 188
3 190 189 188
3 144 190 188
3 191 190 144
3 143 191 144
3 192 189 190
3 179 136 189
3 193 191 147
3 191 143 147
3 194 190 191
3 194 191 193
3 147 143 141
3 146 193 147
3 146 174 193
3 194 192 190
3 179 192 195
3 192 179 189
3 195 196 181
3 181 179 195
3 174 185 193
3 185 195 193
3 193 195 192
3 192 194 193
3 195 185 197
3 196 195 197
3 196 197 198
3 199 198 200
3 201 167 168
3 202 203 201
3 204 60 78
3 204 78 205
3 206 204 205
3 207 206 205
3 206 59 204
3 206 208 59
3 60 204 59
3 209 207 210
3 203 207 209
3 207 205 210
3 207 203 206
3 203 202 206
3 202 208 206
3 184 182 211
3 183 182 184
3 172 183 184
3 211 182 201
3 211 203 209
3 182 167 201
3 201 203 211
3 212 184 211
3 184 213 185
3 212 213 184
3 212 211 209
3 214 209 210
3 210 215 214
3 214 212 209
3 214 216 212
3 213 212 216
3 61 72 217
3 72 77 217
3 61 217 78
3 78 217 218
3 78 218 205
3 205 219 210
3 218 219 205
3 76 220 77
3 220 217 77
3 76 221 220
3 220 218 217
3 222 223 218
3 218 223 219
3 221 224 220
3 224 218 220
3 222 218 224
3 210 223 215
3 210 219 223
3 225 215 223
3 222 226 223
3 227 226 222
3 226 225 223
3 228 229 225
3 228 225 226
3 215 216 214
3 225 216 215
3 229 216 225
3 213 230 185
3 230 197 185
3 213 231 230
3 198 197 230
3 231 200 230
3 198 230 200
3 199 200 232
3 232 200 231
3 233 199 232
3 234 213 235
3 235 213 216
3 231 213 234
3 236 234 235
3 237 233 232
3 232 231 234
3 237 232 234
3 238 229 228
3 236 235 216
3 236 216 239
3 236 237 234
3 240 237 236
3 240 241 237
3 229 239 216
3 236 239 229
3 242 236 229
3 240 236 242
3 243 240 242
3 244 240 243
3 243 242 245
3 246 244 243
3 169 163 166
3 166 177 169
3 247 248 176
3 176 248 177
3 247 249 248
3 178 247 176
3 181 247 178
3 247 250 251
3 169 248 252
3 169 177 248
3 168 169 253
3 252 253 169
3 248 249 252
3 252 249 254
3 253 254 255
3 253 252 254
3 255 254 256
3 249 247 251
3 249 251 257
3 256 257 258
3 256 254 249
3 249 257 256
3 251 258 257
3 251 259 258
3 260 259 251
3 261 247 181
3 247 261 250
3 262 261 181
3 196 262 181
3 261 262 250
3 263 262 196
3 264 262 263
3 198 265 263
3 198 263 196
3 265 264 263
3 266 264 265
3 267 262 264
3 262 267 250
3 268 267 264
3 251 250 260
3 250 267 260
3 269 260 267
3 269 270 260
3 259 260 270
3 269 267 268
3 271 201 168
3 202 271 272
3 201 271 202
3 208 62 59
3 62 208 101
3 208 202 273
3 101 208 273
3 101 273 274
3 101 274 103
3 273 202 275
3 202 272 275
3 273 275 276
3 275 277 276
3 272 277 275
3 273 276 274
3 274 276 278
3 278 276 277
3 168 253 271
3 253 255 271
3 272 271 255
3 277 272 255
3 277 255 279
3 255 256 279
3 279 256 280
3 256 258 259
3 281 256 259
3 280 256 281
3 281 259 282
3 283 277 279
3 278 277 283
3 283 279 280
3 278 283 284
3 285 283 280
3 280 286 285
3 287 280 281
3 287 281 288
3 288 281 282
3 286 280 287
3 286 287 288
3 117 103 274
3 289 117 274
3 104 103 117
3 117 289 290
3 274 278 289
3 290 289 291
3 292 289 278
3 291 289 292
3 118 117 293
3 117 290 293
3 294 293 290
3 293 121 118
3 121 122 118
3 291 295 296
3 291 292 295
3 290 291 296
3 297 284 285
3 284 283 285
3 278 284 292
3 298 292 284
3 298 284 299
3 299 284 297
3 297 286 300
3 299 301 302
3 297 300 299
3 300 301 299
3 285 286 297
3 300 288 303
3 300 286 288
3 304 295 298
3 295 292 298
3 296 295 304
3 305 304 298
3 306 304 305
3 298 299 305
3 305 299 302
3 305 307 308
3 305 302 307
3 266 265 199
3 199 265 198
3 266 199 233
3 309 266 233
3 268 264 310
3 310 264 266
3 266 309 310
3 311 310 309
3 233 312 309
3 237 312 233
3 241 312 237
3 312 311 309
3 311 312 241
3 313 314 311
3 282 259 270
3 315 270 269
3 316 282 270
3 316 270 315
3 268 317 269
3 317 268 310
3 315 269 317
3 318 282 316
3 288 282 318
3 316 315 319
3 320 319 321
3 318 316 319
3 318 319 320
3 311 317 310
3 322 317 311
3 314 322 311
3 319 315 317
3 321 319 317
3 321 317 322
3 301 323 302
3 302 323 324
3 323 301 325
3 240 326 241
3 241 326 313
3 313 326 325
3 313 311 241
3 325 326 323
3 326 240 244
3 327 326 244
3 327 323 326
3 327 324 323
3 328 324 327
3 300 329 301
3 329 330 301
3 325 301 330
3 303 320 329
3 288 318 303
3 320 303 318
3 303 329 300
3 329 320 330
3 313 325 314
3 330 321 322
3 330 322 314
3 325 330 314
3 330 320 321
3 331 307 302
3 324 331 302
3 332 29 333
3 29 332 30
3 333 29 334
3 29 31 334
3 333 334 335
3 336 337 338
3 336 333 335
3 36 339 39
3 67 40 340
3 39 340 40
3 340 39 341
3 341 339 342
3 339 341 39
3 343 344 342
3 344 341 342
3 345 340 344
3 340 341 344
3 346 340 345
3 30 332 339
3 36 30 339
3 342 332 333
3 339 332 342
3 347 342 333
3 333 348 347
3 349 350 338
3 351 338 350
3 349 352 350
3 352 353 350
3 350 353 351
3 336 338 351
3 333 336 354
3 333 354 348
3 351 355 336
3 351 353 355
3 355 354 336
3 353 352 356
3 356 352 357
3 356 355 353
3 356 358 355
3 359 343 347
3 359 347 360
3 347 343 342
3 361 362 345
3 361 344 343
3 361 345 344
3 343 363 361
3 359 363 343
3 362 361 363
3 364 362 363
3 363 359 365
3 363 365 364
3 366 364 365
3 367 368 364
3 366 367 364
3 360 348 354
3 360 347 348
3 358 354 355
3 360 354 369
3 365 360 370
3 359 360 365
3 360 369 370
3 369 354 358
3 366 365 370
3 371 372 373
3 374 373 375
3 374 376 373
3 377 378 374
3 378 376 374
3 376 371 373
3 378 371 376
3 379 378 377
3 380 371 379
3 379 371 378
3 40 67 66
3 381 67 382
3 381 68 67
3 375 68 381
3 375 75 68
3 346 382 340
3 340 382 67
3 383 381 382
3 384 346 345
3 346 384 382
3 384 383 382
3 374 381 383
3 374 375 381
3 68 75 69
3 373 75 375
3 75 373 74
3 372 385 74
3 372 74 373
3 386 371 380
3 362 384 345
3 362 387 384
3 388 387 362
3 387 383 384
3 387 374 383
3 387 377 374
3 389 390 388
3 362 389 388
3 388 391 387
3 392 362 364
3 392 389 362
3 368 392 364
3 390 392 368
3 390 389 392
3 393 388 390
3 393 391 388
3 393 390 394
3 391 377 387
3 379 391 393
3 391 379 377
3 395 379 393
3 396 395 393
3 395 397 379
3 397 380 379
3 398 380 399
3 399 380 397
3 400 358 356
3 356 357 401
3 401 357 402
3 400 356 401
3 400 401 403
3 401 402 403
3 404 367 405
3 370 369 358
3 400 370 358
3 406 370 400
3 403 406 400
3 403 407 406
3 367 366 408
3 366 370 408
3 406 408 370
3 367 408 405
3 405 408 409
3 408 406 407
3 403 410 407
3 407 409 408
3 407 411 409
3 411 412 413
3 411 413 414
3 411 415 412
3 416 411 407
3 417 390 368
3 404 418 368
3 404 368 367
3 418 417 368
3 418 404 405
3 419 417 418
3 417 396 394
3 417 394 390
3 420 417 419
3 421 422 423
3 423 418 421
3 418 405 421
3 423 419 418
3 423 424 419
3 425 426 427
3 409 411 405
3 411 421 405
3 428 427 422
3 421 428 422
3 421 429 428
3 421 430 429
3 431 430 411
3 432 433 430
3 411 430 421
3 413 434 414
3 431 411 414
3 422 427 426
3 433 435 429
3 428 429 427
3 430 433 429
3 427 429 425
3 394 396 393
3 417 397 396
3 396 397 395
3 420 397 417
3 420 436 397
3 426 437 438
3 426 439 437
3 423 422 424
3 419 424 420
3 440 420 424
3 422 426 438
3 422 441 424
3 441 422 438
3 440 442 436
3 440 436 420
3 440 424 442
3 441 442 424
3 441 438 437
3 425 443 426
3 443 439 426
3 439 444 437
3 443 445 439
3 31 44 446
3 446 44 84
3 334 31 446
3 338 447 448
3 334 446 335
3 337 447 338
3 336 335 337
3 449 335 446
3 85 446 84
3 450 446 85
3 451 449 446
3 446 450 451
3 452 85 89
3 452 89 453
3 454 453 92
3 92 453 89
3 455 92 110
3 450 452 456
3 450 85 452
3 451 450 456
3 456 452 453
3 454 456 453
3 454 92 455
3 457 454 458
3 457 456 454
3 458 454 455
3 349 338 448
3 459 352 349
3 459 349 460
3 349 448 460
3 447 461 448
3 460 448 461
3 460 461 462
3 447 337 461
3 449 337 335
3 337 449 461
3 461 449 463
3 462 461 463
3 357 352 459
3 464 357 459
3 459 460 465
3 465 460 462
3 466 464 465
3 464 459 465
3 462 463 467
3 465 468 466
3 465 462 468
3 462 467 469
3 468 462 469
3 449 451 463
3 470 451 471
3 451 456 471
3 463 451 467
3 457 471 456
3 472 470 471
3 471 457 473
3 472 471 473
3 457 458 474
3 473 474 475
3 473 457 474
3 467 451 470
3 476 470 472
3 477 470 476
3 467 470 477
3 472 475 478
3 476 472 478
3 472 473 475
3 479 110 109
3 480 479 109
3 481 110 479
3 110 481 455
3 480 109 113
3 458 455 482
3 482 455 483
3 483 455 481
3 114 119 120
3 484 120 121
3 121 485 484
3 486 487 488
3 488 487 489
3 474 458 482
3 490 474 482
3 475 474 491
3 492 491 490
3 491 474 490
3 478 475 491
3 493 492 494
3 491 492 493
3 490 495 496
3 490 496 494
3 497 496 498
3 492 490 494
3 494 496 497
3 494 497 499
3 499 497 498
3 500 501 502
3 502 486 500
3 503 500 504
3 486 488 500
3 500 488 489
3 500 489 504
3 498 501 505
3 506 501 498
3 496 506 498
3 499 498 505
3 499 505 507
3 508 507 505
3 505 501 500
3 503 508 500
3 505 500 508
3 114 480 113
3 481 479 480
3 509 480 114
3 483 481 510
3 510 481 480
3 510 480 509
3 511 510 509
3 483 510 512
3 512 510 511
3 114 120 513
3 509 114 514
3 114 513 514
3 513 120 515
3 487 515 484
3 515 486 513
3 515 120 484
3 511 509 514
3 486 514 513
3 502 511 514
3 502 514 486
3 486 515 487
3 482 483 512
3 482 495 490
3 495 482 512
3 506 495 512
3 496 495 506
3 502 512 511
3 506 512 501
3 512 502 501
3 402 357 464
3 464 466 402
3 468 469 466
3 466 516 402
3 402 516 410
3 517 469 477
3 477 469 467
3 466 469 516
3 469 517 516
3 517 477 518
3 402 410 403
3 516 517 519
3 410 416 407
3 410 519 416
3 516 519 410
3 416 520 415
3 416 521 520
3 411 416 415
3 521 416 522
3 522 523 524
3 416 523 522
3 517 518 519
3 519 523 416
3 477 476 525
3 525 476 478
3 526 525 478
3 477 525 518
3 527 518 525
3 527 525 526
3 518 527 519
3 527 528 519
3 529 530 531
3 532 533 531
3 531 534 535
3 536 532 531
3 533 537 534
3 531 533 534
3 538 535 539
3 539 535 540
3 523 519 541
3 519 529 541
3 541 535 538
3 541 529 535
3 435 542 429
3 535 542 543
3 540 535 544
3 544 535 543
3 429 535 534
3 429 542 535
3 425 429 534
3 529 531 535
3 478 491 493
3 526 478 493
3 545 526 546
3 546 526 493
3 533 547 537
3 533 532 548
3 493 549 546
3 493 494 549
3 549 494 499
3 528 529 519
3 529 550 530
3 528 550 529
3 527 545 528
3 527 526 545
3 551 552 553
3 528 554 555
3 545 552 551
3 554 545 551
3 528 545 554
3 550 528 555
3 554 551 556
3 555 554 557
3 534 558 425
3 425 558 443
3 537 559 534
3 559 558 534
3 443 560 445
3 558 561 443
3 443 561 560
3 561 562 560
3 537 563 559
3 559 564 558
3 565 566 558
3 558 566 567
3 546 549 507
3 507 549 499
3 507 568 546
3 545 546 569
3 569 546 568
3 570 569 568
3 561 571 562
3 567 561 558
3 568 507 508
3 568 508 572
3 568 572 573
3 573 574 568
3 570 568 574
3 575 576 577
3 578 569 579
3 552 576 575
3 552 569 576
3 545 569 552
3 580 569 578
3 569 581 579
3 576 569 580
3 576 580 582
3 581 574 583
3 581 583 584
3 569 574 581
3 570 574 569
3 574 585 586
3 587 574 586
3 583 574 587
3 76 74 588
3 588 74 385
3 589 385 372
3 588 385 589
3 589 221 588
3 588 221 76
3 589 590 221
3 224 221 591
3 591 221 590
3 592 224 593
3 591 593 224
3 589 372 386
3 386 372 371
3 590 589 386
3 591 590 594
3 594 590 386
3 595 594 386
3 591 594 596
3 597 598 591
3 597 591 596
3 598 593 591
3 227 222 224
3 226 227 592
3 592 227 224
3 238 228 599
3 599 228 226
3 599 226 592
3 600 601 593
3 601 599 593
3 599 592 593
3 602 238 601
3 238 599 601
3 602 601 603
3 604 386 380
3 398 595 604
3 380 398 604
3 604 595 386
3 596 594 605
3 595 605 594
3 606 605 595
3 607 596 605
3 607 597 596
3 608 598 609
3 598 597 609
3 609 597 607
3 399 606 398
3 398 606 595
3 606 610 605
3 399 611 606
3 611 610 606
3 605 610 612
3 607 605 612
3 612 610 611
3 612 613 607
3 613 609 607
3 613 612 614
3 609 613 614
3 615 609 614
3 593 598 600
3 608 600 598
3 616 600 608
3 616 608 609
3 617 616 609
3 600 616 618
3 603 601 600
3 603 600 618
3 619 602 603
3 618 620 603
3 620 618 621
3 617 609 615
3 617 622 616
3 623 624 615
3 615 624 617
3 616 622 618
3 625 626 622
3 624 622 617
3 624 627 625
3 624 625 622
3 618 622 621
3 628 229 238
3 628 245 229
3 245 242 229
3 245 246 243
3 629 244 246
3 630 629 245
3 629 246 245
3 238 631 628
3 602 631 238
3 631 245 628
3 619 631 602
3 631 630 245
3 631 632 630
3 633 631 619
3 633 634 632
3 633 632 631
3 635 632 634
3 620 633 603
3 603 633 619
3 634 633 620
3 397 636 399
3 636 397 436
3 436 637 636
3 399 636 611
3 638 612 611
3 611 636 638
3 639 638 636
3 636 637 639
3 640 638 639
3 641 640 639
3 642 640 643
3 442 644 637
3 441 644 442
3 442 637 436
3 644 641 637
3 644 441 437
3 644 437 645
3 641 639 637
3 644 645 641
3 646 641 645
3 640 641 643
3 444 647 437
3 444 648 647
3 437 649 645
3 650 649 437
3 647 650 437
3 648 651 647
3 444 652 648
3 439 653 444
3 445 653 439
3 653 654 444
3 445 655 653
3 653 656 654
3 654 657 444
3 614 612 638
3 614 638 640
3 658 615 614
3 642 658 614
3 640 642 614
3 649 659 645
3 660 661 662
3 663 661 660
3 664 661 663
3 665 664 666
3 662 661 667
3 645 659 646
3 646 643 641
3 668 643 646
3 669 643 668
3 642 643 670
3 643 661 670
3 667 661 671
3 671 661 669
3 672 667 671
3 673 671 669
3 669 661 643
3 661 674 675
3 676 677 661
3 676 661 675
3 658 623 615
3 670 658 642
3 670 678 679
3 670 679 658
3 658 679 623
3 680 627 624
3 679 624 623
3 678 681 679
3 624 679 680
3 680 679 682
3 683 680 682
3 684 680 685
3 685 680 683
3 670 686 678
3 661 686 670
3 687 686 661
3 677 687 661
3 681 682 679
3 686 681 678
3 686 688 689
3 686 689 681
3 681 683 682
3 681 689 683
3 689 685 683
3 690 691 294
3 691 485 294
3 121 293 294
3 485 121 294
3 484 485 487
3 692 290 296
3 294 290 692
3 693 692 296
3 294 692 690
3 489 691 694
3 489 485 691
3 691 690 694
3 504 489 695
3 695 489 694
3 487 485 489
3 694 690 692
3 692 693 696
3 696 694 692
3 693 697 696
3 296 304 698
3 306 698 304
3 693 296 698
3 697 693 698
3 306 305 308
3 308 699 700
3 698 306 701
3 308 701 306
3 702 696 697
3 702 697 698
3 701 308 700
3 701 700 702
3 702 698 701
3 703 694 696
3 703 695 694
3 703 696 704
3 703 704 705
3 503 504 706
3 504 695 706
3 572 508 707
3 708 572 707
3 707 508 503
3 503 706 707
3 703 706 695
3 709 710 705
3 705 710 703
3 703 710 706
3 706 711 712
3 706 710 711
3 621 713 714
3 715 705 716
3 705 717 716
3 713 716 717
3 713 717 714
3 718 719 625
3 720 721 722
3 721 723 722
3 718 720 722
3 719 718 722
3 724 713 626
3 622 626 713
3 725 716 724
3 713 724 716
3 726 718 625
3 627 726 625
3 726 727 718
3 709 705 720
3 705 715 720
3 721 720 715
3 727 728 720
3 727 720 718
3 709 720 728
3 622 713 621
3 704 696 702
3 717 704 702
3 705 704 717
3 717 702 700
3 700 729 717
3 711 710 728
3 728 710 709
3 328 244 629
3 328 327 244
3 328 629 630
3 630 730 328
3 731 331 324
3 328 731 324
3 731 328 730
3 634 729 635
3 732 730 635
3 635 729 732
3 733 635 730
3 632 733 630
3 635 733 632
3 733 730 630
3 732 731 730
3 699 307 331
3 308 307 699
3 731 699 331
3 729 699 732
3 732 699 731
3 699 729 700
3 620 714 634
3 620 621 714
3 634 714 729
3 714 717 729
3 562 734 560
3 665 735 736
3 737 738 665
3 739 735 740
3 665 741 737
3 742 665 743
3 740 742 744
3 735 665 742
3 661 665 745
3 665 736 741
3 741 736 746
3 665 738 745
3 745 747 661
3 740 735 742
3 739 748 735
3 665 661 664
3 736 735 749
3 560 734 748
3 749 735 750
3 748 751 735
3 734 751 748
3 661 747 674
3 735 751 752
3 752 753 754
3 735 755 750
3 752 754 756
3 757 753 752
3 735 752 755
3 758 759 734
3 562 758 734
3 708 707 760
3 562 761 758
3 762 572 708
3 762 763 573
3 762 573 572
3 763 708 764
3 763 762 708
3 708 760 764
3 760 706 712
3 760 707 706
3 760 712 764
3 764 712 765
3 766 767 768
3 769 757 751
3 767 763 768
3 768 763 769
3 763 764 757
3 770 763 767
3 763 757 769
3 771 768 769
3 574 763 585
3 585 763 770
3 763 574 573
3 751 757 752
3 764 765 757
3 772 726 684
3 684 726 627
3 772 727 726
3 773 727 772
3 773 728 727
3 774 728 773
3 775 773 772
3 627 680 684
3 772 684 776
3 685 689 684
3 776 684 689
3 773 775 777
3 778 688 687
3 779 688 778
3 687 688 686
3 780 753 779
3 781 753 780
3 779 753 688
3 753 782 688
3 688 776 689
3 688 772 776
3 782 775 688
3 688 775 772
3 777 775 782
3 774 711 728
3 712 711 783
3 711 774 784
3 711 784 783
3 712 783 785
3 765 712 785
3 783 784 785
3 786 785 784
3 765 785 786
3 784 774 787
3 777 774 773
3 787 774 777
3 757 786 753
3 753 786 782
3 757 765 786
3 782 787 777
3 786 787 782
3 787 786 784
