/* XPM */
static const char * next_xpm[] = {
/* columns rows colors chars-per-pixel */
"16 16 2 1",
"  c None",
". c Black",
/* pixels */
"                ",
"                ",
"                ",
"   .    .       ",
"   ..   ..      ",
"   ...  ...     ",
"   .... ....    ",
"   ..........   ",
"   .... ....    ",
"   ...  ...     ",
"   ..   ..      ",
"   .    .       ",
"                ",
"                ",
"                ",
"                "
};
